<svg width="64" height="64" viewBox="0 0 64 64" xmlns="http://www.w3.org/2000/svg">
  <defs>
    <linearGradient id="shieldBlue" x1="0%" y1="0%" x2="100%" y2="100%">
      <stop offset="0%" style="stop-color:#4A90E2;stop-opacity:1" />
      <stop offset="50%" style="stop-color:#357ABD;stop-opacity:1" />
      <stop offset="100%" style="stop-color:#2C5D87;stop-opacity:1" />
    </linearGradient>
    <linearGradient id="shieldSilver" x1="0%" y1="0%" x2="100%" y2="100%">
      <stop offset="0%" style="stop-color:#C0C0C0;stop-opacity:1" />
      <stop offset="50%" style="stop-color:#A0A0A0;stop-opacity:1" />
      <stop offset="100%" style="stop-color:#808080;stop-opacity:1" />
    </linearGradient>
    <filter id="metallic" x="-50%" y="-50%" width="200%" height="200%">
      <feGaussianBlur stdDeviation="1" result="coloredBlur"/>
      <feMerge>
        <feMergeNode in="coloredBlur"/>
        <feMergeNode in="SourceGraphic"/>
      </feMerge>
    </filter>
  </defs>
  
  <!-- Shield background -->
  <path d="M32 8 L16 16 L16 36 Q16 48 32 56 Q48 48 48 36 L48 16 Z" 
        fill="url(#shieldBlue)" 
        stroke="#1A365D" 
        stroke-width="2"/>
  
  <!-- Shield border -->
  <path d="M32 10 L18 17 L18 35 Q18 45 32 52 Q46 45 46 35 L46 17 Z" 
        fill="none" 
        stroke="url(#shieldSilver)" 
        stroke-width="1"/>
  
  <!-- Shield emblem - crossed swords -->
  <path d="M26 22 L38 34 M38 22 L26 34" 
        stroke="#FFD700" 
        stroke-width="3" 
        stroke-linecap="round" 
        filter="url(#metallic)"/>
  
  <!-- Sword hilts -->
  <circle cx="26" cy="22" r="2" fill="#8B4513"/>
  <circle cx="38" cy="22" r="2" fill="#8B4513"/>
  <circle cx="38" cy="34" r="2" fill="#8B4513"/>
  <circle cx="26" cy="34" r="2" fill="#8B4513"/>
  
  <!-- Shield shine -->
  <ellipse cx="28" cy="20" rx="4" ry="8" fill="#FFFFFF" opacity="0.3"/>
  
  <!-- Decorative gems -->
  <circle cx="32" cy="18" r="2" fill="#FF0000"/>
  <circle cx="24" cy="28" r="1.5" fill="#00FF00"/>
  <circle cx="40" cy="28" r="1.5" fill="#0000FF"/>
  <circle cx="32" cy="42" r="1.5" fill="#FFFF00"/>
</svg>